<!DOCTYPE svg PUBLIC "-//W3C//DTD SVG 1.1//EN" "http://www.w3.org/Graphics/SVG/1.1/DTD/svg11.dtd">
<!-- Uploaded to: SVG Repo, www.svgrepo.com, Transformed by: SVG Repo Mixer Tools -->
<svg fill="#1C274C" width="800px" height="800px" viewBox="0 0 100 100" xmlns="http://www.w3.org/2000/svg" stroke="#1C274C">
<g id="SVGRepo_bgCarrier" stroke-width="0"/>
<g id="SVGRepo_tracerCarrier" stroke-linecap="round" stroke-linejoin="round"/>
<g id="SVGRepo_iconCarrier">
<path d="M38,30h4a.94.94,0,0,0,1-1V26H57v3a.94.94,0,0,0,1,1h4a.94.94,0,0,0,1-1V26a6,6,0,0,0-6-6H43a6,6,0,0,0-6,6v3A.94.94,0,0,0,38,30Z"/>
<path d="M50,63.32a2.24,2.24,0,1,0,2.24,2.24A2.21,2.21,0,0,0,50,63.32Z"/>
<rect x="47.77" y="50.62" width="4.48" height="11.21" rx="0.75"/>
<path d="M74,36H26a6,6,0,0,0-6,6V74a6,6,0,0,0,6,6H74a6,6,0,0,0,6-6V42A6,6,0,0,0,74,36ZM67.12,73.78H32.91C31,73.78,30,71.39,31,69.67L48.15,42a2.11,2.11,0,0,1,3.73,0L69,69.67C70.11,71.39,69,73.78,67.12,73.78Z"/>
</g>
</svg>